<svg width="98" height="40" viewBox="0 0 98 40" fill="none" xmlns="http://www.w3.org/2000/svg">
<path d="M65.0252 5.25528C64.4233 6.65087 64.7744 7.96894 65.0252 8.45352C65.2351 9.03502 66.831 9.47113 68.6369 9.47113C70.0816 9.47113 71.2454 7.04823 71.6467 5.83677C71.9476 3.99536 71.8272 0.254396 68.9379 0.021797C66.0485 -0.210802 65.4265 1.47554 65.4767 2.34779C65.577 2.73545 65.6272 3.85968 65.0252 5.25528Z" fill="#FF5258"/>
<path d="M78.7196 6.56364C77.8769 6.91254 75.76 9.22884 74.8069 10.3434C73.7535 13.5416 76.4623 14.5592 77.2147 14.4139C77.9672 14.2685 80.8264 12.6694 81.7294 12.0879C82.6323 11.5064 83.2342 8.88964 82.6323 7.43589C82.0303 5.98215 79.773 6.12752 78.7196 6.56364Z" fill="#FF5258"/>
<path d="M61.7323 21.5373C61.7323 21.5373 67.2232 14.447 75.2763 16.8853C85.359 19.9382 71.3635 39.9999 61.4313 39.9999C51.4992 39.9999 35.096 22.8455 48.1885 16.4491C54.3043 13.4612 61.7323 21.5373 61.7323 21.5373Z" fill="#FF5258"/>
<path d="M44.7273 22.8232C44.7273 22.8814 44.6326 23.0501 44.4432 23.3293C44.2728 23.6086 44.036 23.9518 43.733 24.359C43.43 24.7662 43.0797 25.2258 42.682 25.7378C42.3032 26.2381 41.9055 26.7558 41.4889 27.291C41.0723 27.8146 40.6651 28.3323 40.2674 28.8443C39.8697 29.3562 39.5004 29.8216 39.1595 30.2405C38.8376 30.6477 38.563 30.9967 38.3358 31.2876C38.1085 31.5668 37.9665 31.7414 37.9096 31.8112C38.4967 31.6948 39.0933 31.6018 39.6993 31.5319C40.3242 31.4505 40.9492 31.4098 41.5741 31.4098C41.8771 31.4098 42.1991 31.4272 42.5399 31.4621C42.8808 31.4854 43.1933 31.5436 43.4774 31.6367C43.7804 31.7181 44.0266 31.8345 44.2159 31.9857C44.4243 32.1253 44.5284 32.3173 44.5284 32.5616C44.5284 32.8176 44.3864 33.0503 44.1023 33.2597C43.8182 33.4575 43.449 33.632 42.9945 33.7833C42.5589 33.9346 42.057 34.0625 41.4889 34.1673C40.9208 34.272 40.3526 34.3592 39.7845 34.429C39.2164 34.4988 38.6766 34.5454 38.1653 34.5687C37.654 34.6036 37.2279 34.621 36.887 34.621C36.4514 34.621 35.9685 34.6094 35.4383 34.5861C34.9269 34.5628 34.4346 34.4988 33.9611 34.3941C33.4877 34.2894 33.09 34.1382 32.768 33.9404C32.465 33.7309 32.3135 33.4401 32.3135 33.0678C32.3135 32.8118 32.4272 32.4686 32.6544 32.0381C32.9006 31.5959 33.1847 31.148 33.5066 30.6942C33.8286 30.2288 34.16 29.7867 34.5008 29.3679C34.8607 28.9374 35.1447 28.5999 35.353 28.3556C35.9969 27.6226 36.6408 26.8954 37.2847 26.1741C37.9475 25.4411 38.5914 24.7023 39.2164 23.9576C38.5535 24.1903 37.796 24.4056 36.9438 24.6034C36.0916 24.7895 35.2868 24.8826 34.5293 24.8826C34.2641 24.8826 33.9801 24.8593 33.677 24.8128C33.393 24.7662 33.1279 24.7023 32.8817 24.6208C32.6544 24.5277 32.465 24.4114 32.3135 24.2718C32.162 24.1321 32.0863 23.9693 32.0863 23.7831C32.0863 23.4806 32.2472 23.2013 32.5692 22.9454C32.8911 22.6894 33.3078 22.4567 33.8191 22.2473C34.3493 22.0379 34.9364 21.8517 35.5803 21.6888C36.2431 21.5259 36.9059 21.3921 37.5688 21.2874C38.2316 21.1827 38.8565 21.1012 39.4436 21.0431C40.0496 20.9849 40.5609 20.9558 40.9776 20.9558C42.076 20.9558 42.9755 21.0896 43.6762 21.3572C44.3769 21.6248 44.7273 22.1135 44.7273 22.8232Z" fill="#103559"/>
<path d="M29.3408 35.3483C28.1554 35.3483 27.2288 35.195 26.561 34.8885C25.9099 34.5981 25.4174 34.1787 25.0835 33.6302C24.7663 33.0817 24.5743 32.4202 24.5076 31.6459C24.4408 30.8715 24.4074 30.0084 24.4074 29.0566C24.4074 28.2983 24.4324 27.5401 24.4825 26.7819C24.5326 26.0075 24.6077 25.1847 24.7079 24.3136C24.4742 24.3136 24.2905 24.3216 24.157 24.3378C24.0234 24.3378 23.9149 24.3378 23.8314 24.3378C23.2972 24.3378 22.8381 24.2248 22.4541 23.999C22.0534 23.7731 21.8531 23.4263 21.8531 22.9584C21.8531 22.668 21.9699 22.4099 22.2037 22.1841C22.4207 21.9582 22.7045 21.7646 23.0551 21.6033C23.4057 21.442 23.7813 21.3129 24.182 21.2161C24.5994 21.1193 24.9917 21.0548 25.359 21.0225C25.359 20.5708 25.3924 20.0707 25.4592 19.5222C25.526 18.9737 25.6428 18.4655 25.8098 17.9976C25.9934 17.5137 26.2355 17.1103 26.536 16.7877C26.8365 16.465 27.2205 16.3037 27.688 16.3037C27.9551 16.3037 28.1888 16.3844 28.3891 16.5457C28.6062 16.6909 28.7815 16.8845 28.915 17.1265C29.0486 17.3523 29.1488 17.6105 29.2155 17.9008C29.2823 18.1912 29.3157 18.4736 29.3157 18.7478C29.3157 19.0705 29.2907 19.4012 29.2406 19.74C29.1905 20.0788 29.0987 20.4982 28.9651 20.9983C29.2489 20.966 29.4409 20.9499 29.5411 20.9499C29.6413 20.9338 29.7331 20.9257 29.8166 20.9257C30.1004 20.9257 30.3925 20.9499 30.693 20.9983C31.0103 21.0467 31.2941 21.1274 31.5445 21.2403C31.8116 21.3532 32.0286 21.5065 32.1956 21.7001C32.3625 21.8775 32.446 22.0953 32.446 22.3535C32.446 22.6438 32.3208 22.902 32.0704 23.1278C31.8367 23.3537 31.5361 23.5473 31.1689 23.7086C30.8016 23.8699 30.4092 23.999 29.9919 24.0958C29.5745 24.1764 29.1822 24.2329 28.8149 24.2652C28.7147 24.9266 28.6396 25.5397 28.5895 26.1043C28.5561 26.6528 28.5144 27.2094 28.4643 27.774C28.4309 28.0483 28.3975 28.3306 28.3641 28.621C28.3474 28.8952 28.3391 29.1776 28.3391 29.468C28.3391 29.6777 28.3474 29.9277 28.3641 30.2181C28.3808 30.4924 28.4392 30.7586 28.5394 31.0167C28.6396 31.2748 28.7982 31.5007 29.0152 31.6943C29.2322 31.8717 29.5327 31.9605 29.9167 31.9605C30.1505 31.9605 30.3925 31.9443 30.643 31.9121C30.8934 31.8637 31.1438 31.8395 31.3942 31.8395C31.8283 31.8395 32.1372 31.9847 32.3208 32.275C32.5211 32.5654 32.6213 32.9365 32.6213 33.3882C32.6213 33.727 32.5128 34.0254 32.2958 34.2836C32.0954 34.5255 31.8367 34.7191 31.5195 34.8643C31.2022 35.0257 30.8433 35.1467 30.4426 35.2273C30.0586 35.308 29.6913 35.3483 29.3408 35.3483Z" fill="#103559"/>
<path d="M22.6885 30.0236C22.6885 30.5721 22.5048 31.1125 22.1375 31.6449C21.7869 32.1611 21.3362 32.629 20.7852 33.0484C20.251 33.4517 19.675 33.7825 19.0573 34.0406C18.4396 34.2826 17.872 34.4036 17.3544 34.4036C16.4696 34.4036 15.6766 34.1938 14.9754 33.7744C14.2909 33.3388 13.7149 32.7903 13.2475 32.1289C12.78 31.4674 12.4211 30.7415 12.1706 29.951C11.9369 29.1443 11.82 28.3619 11.82 27.6037C11.82 26.797 11.9369 25.9339 12.1706 25.0144C12.4044 24.0948 12.755 23.2478 13.2224 22.4735C13.7066 21.6991 14.3076 21.0538 15.0255 20.5376C15.7601 20.0213 16.6282 19.7632 17.6299 19.7632C18.1975 19.7632 18.7401 19.86 19.2577 20.0536C19.7752 20.231 20.226 20.4892 20.6099 20.8279C20.9939 21.1667 21.3028 21.57 21.5365 22.0379C21.7702 22.5057 21.8871 23.03 21.8871 23.6108C21.8871 24.3691 21.7202 25.0789 21.3863 25.7403C21.0524 26.4018 20.6099 26.9745 20.059 27.4585C19.5081 27.9424 18.8737 28.3377 18.1558 28.6442C17.4379 28.9346 16.7033 29.0959 15.952 29.1282C16.0188 29.596 16.2108 29.9348 16.528 30.1445C16.8619 30.3543 17.2543 30.4591 17.705 30.4591C18.0389 30.4591 18.3645 30.3785 18.6817 30.2171C18.9989 30.0558 19.3077 29.8784 19.6082 29.6848C19.9088 29.475 20.2009 29.2895 20.4847 29.1282C20.7852 28.9669 21.0858 28.8862 21.3863 28.8862C21.7202 28.8862 22.0207 28.9911 22.2878 29.2008C22.5549 29.4105 22.6885 29.6848 22.6885 30.0236ZM18.6316 24.0948C18.6316 23.8851 18.5732 23.6673 18.4563 23.4414C18.3394 23.2156 18.1558 23.1026 17.9054 23.1026C17.5381 23.1026 17.2292 23.1994 16.9788 23.393C16.7284 23.5705 16.5197 23.8044 16.3527 24.0948C16.1858 24.3691 16.0522 24.6675 15.952 24.9902C15.8686 25.3128 15.8185 25.6113 15.8018 25.8855C16.0355 25.8371 16.311 25.7726 16.6282 25.6919C16.9621 25.6113 17.2709 25.5064 17.5548 25.3773C17.8553 25.2322 18.1057 25.0547 18.306 24.845C18.5231 24.6352 18.6316 24.3852 18.6316 24.0948Z" fill="#103559"/>
<path d="M11.5947 21.3605C11.5947 22.2316 11.3943 23.0867 10.9936 23.9255C10.6097 24.7644 10.0921 25.5227 9.44101 26.2003C8.78991 26.8617 8.04698 27.4102 7.21223 27.8458C6.37748 28.2652 5.51769 28.4992 4.63286 28.5476C4.61616 28.8379 4.59947 29.209 4.58277 29.6607C4.58277 30.0963 4.55773 30.5561 4.50764 31.04C4.45756 31.524 4.38243 32.008 4.28226 32.492C4.19879 32.976 4.06523 33.4116 3.88158 33.7987C3.71463 34.1859 3.48925 34.5005 3.20544 34.7425C2.93832 34.9845 2.60442 35.1055 2.20374 35.1055C1.73628 35.1055 1.36064 34.9522 1.07683 34.6457C0.809706 34.3553 0.601019 34.0004 0.450764 33.5809C0.317205 33.1615 0.225382 32.7259 0.175297 32.2742C0.125212 31.8064 0.0918224 31.4111 0.0751274 31.0884C0.0417374 30.6206 0.016695 30.1608 0 29.7091C0 29.2574 0 28.7976 0 28.3298C0 28.12 0 27.7329 0 27.1682C0 26.5874 0 25.9341 0 25.2081C0.016695 24.466 0.03339 23.6997 0.0500849 22.9092C0.0667799 22.1026 0.0918224 21.3605 0.125212 20.6829C0.158602 19.9892 0.191992 19.4003 0.225382 18.9164C0.275467 18.4324 0.3339 18.1501 0.400679 18.0694C0.417374 18.0533 0.467459 18.021 0.550934 17.9726C0.634409 17.9081 0.726232 17.8516 0.826401 17.8032C0.926571 17.7387 1.01839 17.6822 1.10187 17.6338C1.18534 17.5854 1.24378 17.5531 1.27717 17.537C2.04513 17.1176 2.88823 16.7546 3.80646 16.4481C4.72468 16.1415 5.63456 15.9883 6.53608 15.9883C7.30405 15.9883 7.99689 16.1415 8.61461 16.4481C9.24902 16.7384 9.78326 17.1337 10.2173 17.6338C10.6681 18.1178 11.0103 18.6905 11.2441 19.3519C11.4778 19.9972 11.5947 20.6668 11.5947 21.3605ZM7.26232 21.917C7.26232 21.5944 7.17884 21.3121 7.01189 21.0701C6.86164 20.8281 6.60286 20.7071 6.23557 20.7071C5.91837 20.7071 5.60117 20.7716 5.28396 20.9007C4.96676 21.0136 4.67459 21.1346 4.40747 21.2637C4.45756 21.8283 4.4993 22.3768 4.53269 22.9092C4.58277 23.4416 4.59112 23.9901 4.55773 24.5547C4.82485 24.4257 5.11701 24.2805 5.43422 24.1191C5.75142 23.9417 6.04358 23.7481 6.3107 23.5384C6.57782 23.3286 6.8032 23.0947 6.98685 22.8366C7.17049 22.5623 7.26232 22.2558 7.26232 21.917Z" fill="#103559"/>
<path d="M98 30.4547C98 31.0091 97.8163 31.5554 97.4488 32.0935C97.0981 32.6153 96.6471 33.0882 96.0959 33.5122C95.5614 33.9199 94.9852 34.2541 94.3672 34.515C93.7492 34.7596 93.1814 34.8819 92.6636 34.8819C91.7784 34.8819 90.985 34.67 90.2835 34.246C89.5987 33.8057 89.0225 33.2513 88.5548 32.5827C88.0872 31.9141 87.7281 31.1804 87.4775 30.3813C87.2437 29.566 87.1268 28.7751 87.1268 28.0087C87.1268 27.1934 87.2437 26.321 87.4775 25.3915C87.7114 24.4621 88.0621 23.606 88.5298 22.8232C89.0141 22.0405 89.6154 21.3883 90.3336 20.8665C91.0685 20.3446 91.937 20.0837 92.9392 20.0837C93.5071 20.0837 94.0499 20.1816 94.5677 20.3773C95.0854 20.5566 95.5364 20.8175 95.9205 21.16C96.3047 21.5024 96.6137 21.9101 96.8475 22.383C97.0814 22.8559 97.1983 23.3858 97.1983 23.9729C97.1983 24.7393 97.0312 25.4568 96.6972 26.1253C96.3632 26.7939 95.9205 27.3728 95.3694 27.862C94.8182 28.3512 94.1835 28.7507 93.4653 29.0605C92.7471 29.354 92.0122 29.5171 91.2606 29.5497C91.3274 30.0226 91.5195 30.365 91.8368 30.577C92.1709 30.789 92.5634 30.895 93.0143 30.895C93.3484 30.895 93.6741 30.8135 93.9914 30.6504C94.3088 30.4873 94.6178 30.308 94.9184 30.1123C95.219 29.9003 95.5113 29.7128 95.7953 29.5497C96.0959 29.3866 96.3966 29.3051 96.6972 29.3051C97.0312 29.3051 97.3319 29.4111 97.5991 29.6231C97.8664 29.8351 98 30.1123 98 30.4547ZM93.9413 24.4621C93.9413 24.2501 93.8829 24.0299 93.7659 23.8016C93.649 23.5733 93.4653 23.4592 93.2148 23.4592C92.8473 23.4592 92.5383 23.557 92.2878 23.7527C92.0373 23.9321 91.8285 24.1685 91.6615 24.4621C91.4944 24.7393 91.3608 25.0409 91.2606 25.3671C91.1771 25.6932 91.127 25.9949 91.1103 26.2721C91.3441 26.2232 91.6197 26.1579 91.937 26.0764C92.2711 25.9949 92.5801 25.8889 92.864 25.7584C93.1647 25.6117 93.4152 25.4323 93.6156 25.2203C93.8328 25.0083 93.9413 24.7556 93.9413 24.4621Z" fill="#103559"/>
<path d="M82.6422 35.4931C82.3583 35.4931 82.1328 35.3626 81.9657 35.1017C81.7987 34.8571 81.6735 34.5718 81.5899 34.2456C81.5064 33.9195 81.448 33.5934 81.4146 33.2672C81.3979 32.9248 81.3895 32.6639 81.3895 32.4845C81.3895 31.9953 81.4146 31.5061 81.4647 31.0169C81.5315 30.5277 81.5983 30.0385 81.6651 29.5493C81.7486 29.0601 81.8154 28.571 81.8655 28.0818C81.9323 27.5926 81.9657 27.1034 81.9657 26.6142C81.9657 26.4185 81.9574 26.2065 81.9407 25.9782C81.924 25.7499 81.8822 25.5379 81.8154 25.3423C81.7653 25.1303 81.6735 24.959 81.5398 24.8286C81.4062 24.6981 81.2308 24.6329 81.0137 24.6329C80.8634 24.6329 80.6964 24.7552 80.5126 24.9998C80.3289 25.2281 80.1535 25.4972 79.9865 25.807C79.8362 26.1005 79.7026 26.4022 79.5857 26.712C79.4855 27.0055 79.4353 27.2257 79.4353 27.3724C79.4353 27.7312 79.4353 28.0981 79.4353 28.4731C79.452 28.8319 79.4604 29.1988 79.4604 29.5738V30.9925C79.4437 31.286 79.4186 31.5877 79.3852 31.8975C79.3518 32.2073 79.3017 32.509 79.2349 32.8025C79.1848 33.096 79.1097 33.3814 79.0094 33.6586C78.9092 33.9195 78.7756 34.1559 78.6086 34.3679C78.4583 34.5636 78.2745 34.7267 78.0574 34.8571C77.8403 34.9876 77.5814 35.0528 77.2807 35.0528C76.9467 35.0528 76.6711 34.9468 76.454 34.7348C76.2369 34.5228 76.0615 34.2538 75.9279 33.9277C75.7942 33.5852 75.694 33.2102 75.6272 32.8025C75.5771 32.3785 75.5354 31.9709 75.5019 31.5795C75.4852 31.1718 75.4769 30.805 75.4769 30.4788C75.4936 30.1364 75.5019 29.8673 75.5019 29.6716V28.522C75.5019 27.9024 75.4852 27.2909 75.4518 26.6875C75.4351 26.0842 75.4268 25.4809 75.4268 24.8775C75.4268 24.5514 75.4268 24.1356 75.4268 23.6301C75.4435 23.1246 75.5103 22.6354 75.6272 22.1625C75.7441 21.6733 75.9362 21.2575 76.2034 20.915C76.4707 20.5726 76.8632 20.4014 77.381 20.4014C77.6148 20.4014 77.8236 20.4747 78.0073 20.6215C78.191 20.7683 78.3497 20.9476 78.4833 21.1596C78.6336 21.3716 78.7506 21.5999 78.8341 21.8445C78.9343 22.0891 79.0094 22.3011 79.0595 22.4805C79.2266 22.2522 79.4186 22.032 79.6358 21.82C79.8696 21.6081 80.1285 21.4205 80.4124 21.2575C80.6964 21.0944 81.0137 20.9639 81.3645 20.8661C81.7152 20.7683 82.1161 20.7193 82.567 20.7193C83.4189 20.7193 84.0786 20.9232 84.5463 21.3308C85.0306 21.7222 85.3814 22.2195 85.5985 22.8229C85.8323 23.4099 85.9743 24.0459 86.0244 24.7308C86.0745 25.4156 86.0996 26.0353 86.0996 26.5897C86.0996 26.8669 86.0745 27.2827 86.0244 27.8372C85.9743 28.3753 85.8908 28.9786 85.7739 29.6472C85.6737 30.2994 85.5317 30.9762 85.348 31.6774C85.1642 32.3622 84.9471 32.99 84.6966 33.5608C84.446 34.1315 84.1454 34.5962 83.7947 34.955C83.4606 35.3137 83.0765 35.4931 82.6422 35.4931Z" fill="#103559"/>
<path d="M51.9506 29.6781C50.5962 29.6781 47.0837 27.2068 46.9846 25.8984C46.7535 22.8455 46.8029 20.0603 48.9409 19.6473C51.1983 19.2112 50.8973 21.8279 50.8973 23.8631C50.8973 23.8631 50.7145 25.213 52.2516 25.8984C54.208 26.7706 54.6595 29.6781 51.9506 29.6781Z" fill="#FFEADE"/>
<path d="M44.2578 13.5416C43.2947 14.8209 41.5491 14.753 40.7966 14.5592C40.0943 14.5592 38.2684 14.094 36.583 12.2332C34.4761 9.90717 36.7334 7.29045 37.1849 6.56358C37.6364 5.83671 38.8403 5.98208 39.5927 5.98208C40.1947 5.98208 42.753 8.01732 43.9569 9.03495C44.4585 10.0041 45.221 12.2623 44.2578 13.5416Z" fill="#FF5258"/>
<path d="M50.5784 5.54573C50.9395 6.01093 51.3308 7.19331 51.4813 7.72635C52.0832 8.59858 53.4376 9.76161 54.0396 10.1977C54.6415 10.6339 56.2969 10.9246 57.5008 9.18012C58.7047 7.43562 57.0494 2.49287 55.9959 1.1845C54.9425 -0.123871 52.8357 0.893751 51.6318 1.91137C50.4279 2.92899 50.1269 4.96424 50.5784 5.54573Z" fill="#FF5258"/>
</svg>
