<svg width="1440" height="695" viewBox="0 0 1440 695" fill="none" xmlns="http://www.w3.org/2000/svg">
<g clip-path="url(#clip0_83_503)">
<path d="M0 0H1440V655C1440 677.091 1422.09 695 1400 695H40C17.9086 695 0 677.091 0 655V0Z" fill="url(#paint0_linear_83_503)"/>
<rect opacity="0.4" x="438.334" y="564" width="635" height="635" rx="99" transform="rotate(56.47 438.334 564)" fill="#F7DBA7"/>
<rect x="-64.3297" y="-697" width="635" height="635" rx="99" transform="rotate(25.23 -64.3297 -697)" fill="#F7DBA7"/>
<rect x="140.603" y="163" width="67.1033" height="67.1033" rx="20" transform="rotate(25.23 140.603 163)" fill="#F7DBA7"/>
<rect x="140.603" y="163" width="67.1033" height="67.1033" rx="20" transform="rotate(25.23 140.603 163)" fill="#F7DBA7"/>
<rect x="762.192" y="148" width="14.6264" height="14.6264" rx="4" transform="rotate(20.792 762.192 148)" fill="#F7DBA7"/>
<rect x="728" y="210.678" width="27.4976" height="27.4976" rx="9" transform="rotate(-22.8503 728 210.678)" fill="#F7DBA7"/>
<rect x="727" y="223.644" width="21.4707" height="21.4707" rx="6" transform="rotate(-43.0046 727 223.644)" fill="#002A48"/>
</g>
<defs>
<linearGradient id="paint0_linear_83_503" x1="0" y1="0" x2="1506.5" y2="713" gradientUnits="userSpaceOnUse">
<stop offset="0.0616933" stop-color="#FCEED5"/>
<stop offset="0.751415" stop-color="#FCEED5"/>
<stop offset="1" stop-color="#FFE7BA"/>
</linearGradient>
<clipPath id="clip0_83_503">
<path d="M0 0H1440V655C1440 677.091 1422.09 695 1400 695H40C17.9086 695 0 677.091 0 655V0Z" fill="white"/>
</clipPath>
</defs>
</svg>
